# xmcd
#
# Track frame offsets:
#	150
#	12876
#	24755
#	41395
#	55578
#	70465
#	84408
#	96059
#	109776
#	122519
#	136835
#	150245
#	163202
#	173636
#	189119
#	203785
#	217809
#	232917
#	246462
#	258745
#	277806
#	289371
#	303305
#	315227
#
# Disc length: 4345 seconds
#
# Revision: 1
# Processed by: cddbd v1.5.2PL0 Copyright (c) Steve Scherf et al.
# Submitted via: EasyCDDAExtractor 10.5.1.1
#
DISCID=3110f718
DTITLE=Various Artist - The Harptones - The Jive Five
DYEAR=2006
DGENRE=R&B
TTITLE0=Harptones - My One and Only Love
TTITLE1=Harptones - Those Wonderful Moments
TTITLE2=Harptones - Love Needs A Heart
TTITLE3=Harptones - It's You
TTITLE4=Harptones - When Your Love Has Said Goodbye
TTITLE5=Harptones - I'm So In Love With You
TTITLE6=Harptones - Gee Whiz
TTITLE7=Harptones - If I Give My Heart To You
TTITLE8=Harptones - I've Never Been In Love
TTITLE9=Harptones - That's What I Need
TTITLE10=Harptones - Our Love
TTITLE11=Harptones - We Are In Love
TTITLE12=Jive Five - Here I Am
TTITLE13=Jive Five - Never, Never Lie
TTITLE14=Jive Five - Don't Believe Him Donna
TTITLE15=Jive Five - Hey Nineteen
TTITLE16=Jive Five - Hey Sam
TTITLE17=Jive Five - Never, Never Change
TTITLE18=Jive Five - Chains
TTITLE19=Jive Five - Magic Maker, Music Maker
TTITLE20=Jive Five - Oh Baby
TTITLE21=Jive Five - Say You'll Be There
TTITLE22=Jive Five - He's Just A Lucky Man
TTITLE23=Jive Five - Baby, You're My Only Love
EXTD=
EXTT0=
EXTT1=
EXTT2=
EXTT3=
EXTT4=
EXTT5=
EXTT6=
EXTT7=
EXTT8=
EXTT9=
EXTT10=
EXTT11=
EXTT12=
EXTT13=
EXTT14=
EXTT15=
EXTT16=
EXTT17=
EXTT18=
EXTT19=
EXTT20=
EXTT21=
EXTT22=
EXTT23=
PLAYORDER=
